Coordinates
version=1
nRows=8
nColumns=40
inDegrees=yes

Units are S.I. units (second, meters, Newtons, ...)
Angles are in degrees.

endheader
time	pelvis_tilt	pelvis_list	pelvis_rotation	pelvis_tx	pelvis_ty	pelvis_tz	hip_flexion_r	hip_adduction_r	hip_rotation_r	knee_angle_r	knee_angle_r_beta	ankle_angle_r	subtalar_angle_r	mtp_angle_r	hip_flexion_l	hip_adduction_l	hip_rotation_l	knee_angle_l	knee_angle_l_beta	ankle_angle_l	subtalar_angle_l	mtp_angle_l	lumbar_extension	lumbar_bending	lumbar_rotation	arm_flex_r	arm_add_r	arm_rot_r	elbow_flex_r	pro_sup_r	wrist_flex_r	wrist_dev_r	arm_flex_l	arm_add_l	arm_rot_l	elbow_flex_l	pro_sup_l	wrist_flex_l	wrist_dev_l
      2.31000005	    -22.89546824	     -8.43739867	     12.77917938	     -1.93772619	      0.92687178	      0.28477080	     80.46002334	     -3.90488105	     -3.38927821	     83.30600243	     83.30600243	      8.36509186	      0.00000000	      0.00000000	     -4.46415874	    -12.28579681	      5.61775523	     18.18893209	     18.18893209	    -16.43621807	      0.00000000	      0.00000000	    -13.46920967	     13.19165735	     -7.94906838	    -69.29071353	     -7.92662507	    -36.72344860	     74.69570026	     87.48441653	      0.00000000	      0.00000000	     80.33214383	    -14.47391069	      6.95148631	    120.80037973	     33.55085200	      0.00000000	      0.00000000
      2.31500005	    -22.72276342	     -8.32960377	     11.50890992	     -1.90484338	      0.92963676	      0.28464770	     79.75111619	     -3.24447030	     -3.42514983	     78.45230334	     78.45230334	      8.34820274	      0.00000000	      0.00000000	     -6.26000272	    -12.01644511	      5.34105666	     18.14119662	     18.14119662	    -19.92226052	      0.00000000	      0.00000000	    -13.71839231	     13.35664323	     -6.49208689	    -69.27437133	     -7.19065226	    -38.22904672	     74.77044234	     87.35766932	      0.00000000	      0.00000000	     79.18747042	    -15.12646787	      7.02615264	    122.72007082	     33.65927379	      0.00000000	      0.00000000
      2.32000005	    -22.44636147	     -8.16624676	     10.47713554	     -1.87205546	      0.93291019	      0.28428754	     78.61626669	     -2.82956064	     -3.62703406	     73.39000402	     73.39000402	      8.11904179	      0.00000000	      0.00000000	     -7.77087685	    -11.62923702	      5.33018883	     18.70533230	     18.70533230	    -22.75201959	      0.00000000	      0.00000000	    -14.10725167	     13.49520514	     -5.22955588	    -68.83767198	     -6.59779143	    -39.52676924	     74.78977672	     87.17426154	      0.00000000	      0.00000000	     77.54819296	    -15.91203475	      7.31528072	    124.54295845	     33.75278558	      0.00000000	      0.00000000
      2.32500005	    -22.05346058	     -7.95542964	      9.68893898	     -1.83936172	      0.93663716	      0.28367821	     77.06787262	     -2.64775028	     -4.00352298	     68.16664088	     68.16664088	      7.64744478	      0.00000000	      0.00000000	     -9.00331315	    -11.15683151	      5.55564281	     19.91665487	     19.91665487	    -24.86693708	      0.00000000	      0.00000000	    -14.64571939	     13.61488136	     -4.18206121	    -68.01279715	     -6.18565746	    -40.58464980	     74.78779622	     86.90499027	      0.00000000	      0.00000000	     75.45055111	    -16.82753783	      7.81851875	    126.19683521	     33.89741242	      0.00000000	      0.00000000
      2.33000005	    -21.53659087	     -7.70830465	      9.12392847	     -1.80675532	      0.94074878	      0.28284701	     75.12861363	     -2.65703596	     -4.56073062	     62.83583601	     62.83583601	      6.91017666	      0.00000000	      0.00000000	     -9.97589167	    -10.62769761	      5.94555841	     21.78015883	     21.78015883	    -26.28295084	      0.00000000	      0.00000000	    -15.34094293	     13.72330351	     -3.34511173	    -66.83705680	     -5.98061894	    -41.38810096	     74.79647895	     86.64478771	      0.00000000	      0.00000000	     72.93835183	    -17.85997619	      8.52273579	    127.61617942	     34.03253171	      0.00000000	      0.00000000
      2.33500005	    -20.89783613	     -7.43968058	      8.74412781	     -1.77422979	      0.94515356	      0.28185127	     72.83651608	     -2.79580329	     -5.29763877	     57.46094058	     57.46094058	      5.89379972	      0.00000000	      0.00000000	    -10.70910723	    -10.06849200	      6.40269573	     24.27132210	     24.27132210	    -27.08495762	      0.00000000	      0.00000000	    -16.19024367	     13.82910113	     -2.69808955	    -65.36139801	     -5.99748451	    -41.89283205	     74.87348547	     86.01856882	      0.00000000	      0.00000000	     70.06101197	    -18.98896849	      9.39941984	    128.73005274	     34.19732400	      0.00000000	      0.00000000
      2.34000005	    -20.15123755	     -7.16476928	      8.49978070	     -1.74178218	      0.94973361	      0.28076938	     70.24866238	     -2.99228755	     -6.19793167	     52.11877569	     52.11877569	      4.59694525	      0.00000000	      0.00000000	    -11.22025174	     -9.50286107	      6.82544318	     27.33556656	     27.33556656	    -27.41597419	      0.00000000	      0.00000000	    -17.17765925	     13.93824398	     -2.20628980	    -63.62907309	     -6.23634020	    -42.12042998	     75.04741202	     85.32506694	      0.00000000	      0.00000000	     66.87034483	    -20.18400171	     10.40381310	    129.47316588	     34.43288521	      0.00000000	      0.00000000
      2.34500005	    -19.32367471	     -6.89371196	      8.33502109	     -1.70941481	      0.95434542	      0.27968763	     67.44373468	     -3.17714354	     -7.22306594	     46.90439655	     46.90439655	      3.03585370	      0.00000000	      0.00000000	    -11.52037312	     -8.94645738	      7.12890800	     30.89219070	     30.89219070	    -27.45354685	      0.00000000	      0.00000000	    -18.27173911	     14.04685566	     -1.82984345	    -61.68766341	     -6.68667108	    -42.06440587	     75.35975462	     84.39767303	      0.00000000	      0.00000000	     63.41871956	    -21.40937289	     11.48345842	    129.79684628	     34.69713229	      0.00000000	      0.00000000
